<svg width="613" height="373" viewBox="0 0 613 373" fill="none" xmlns="http://www.w3.org/2000/svg">
<path d="M134.5 760.8H1538.5M351.496 662.6H1538.5M222.5 564.4H1538.5M195 466.2H1538.5M134.5 372L1538.5 368M0 269.8H1538.5M134.5 177.346H566.5V859M134.5 70L354.5 70.5328L350.5 859M1430.5 -123V859M1322.5 -123V859M1214.5 -123V859M1106.5 -123V859M998.5 -123V859M890.5 -123V859M782.5 -123V859M674.5 -123V859M458.5 177.984V859M242.5 532.8V-24.8H134.5V398.5" stroke="#D9D9D9" stroke-miterlimit="10"/>
</svg>
